<svg width="512" height="512" viewBox="0 0 512 512" fill="none" xmlns="http://www.w3.org/2000/svg">
<rect width="512" height="512" fill="white"/>
<path fill-rule="evenodd" clip-rule="evenodd" d="M166.338 420.08C189.103 438.492 218.795 450 255.415 450C280.718 450 306.02 437.72 328.044 415.195C330.117 416.352 332.244 417.419 334.421 418.389C344.719 422.98 355.878 425.318 367.153 425.247C384.123 425.291 400.669 419.942 414.402 409.972C428.135 400.003 438.345 385.927 443.56 369.778C454.61 367.516 465.049 362.92 474.179 356.296C483.308 349.673 490.918 341.176 496.498 331.374C505.003 316.7 508.63 299.705 506.855 282.838C505.081 265.971 497.997 250.102 486.624 237.52C490.186 226.822 491.422 215.487 490.249 204.273C489.075 193.059 485.52 182.225 479.82 172.496C471.372 157.781 458.466 146.131 442.967 139.226C427.467 132.321 410.174 130.519 393.584 134.08C386.101 125.647 376.903 118.909 366.605 114.318C356.308 109.728 345.148 107.39 333.874 107.461C333.62 107.46 333.367 107.461 333.113 107.462C314.352 88.0553 291.977 76 267.292 76C243.044 76 214.836 84.6308 200.485 94.4123C242.054 94.4123 267.292 104.194 267.292 136.991C267.292 155.403 255.415 174.391 235.126 174.391C223.419 174.391 211.158 170.011 198.238 165.397C183.851 160.258 168.647 154.828 152.482 154.828C133.182 154.828 113.882 162.883 97.0564 180.72C140.11 180.72 154.956 208.338 154.956 234.806C154.956 267.603 131.203 304.428 78.7462 304.428C58.9513 304.428 34.7026 299.249 6 286.591C34.2077 342.978 72.3128 356.788 107.944 356.788C128.697 356.788 148.611 351.908 165.241 347.832C177.162 344.911 187.396 342.403 195.041 342.403C215.331 342.403 227.208 361.391 227.208 379.803C227.208 407.422 211.372 420.08 166.338 420.08ZM351.884 131.022C355.431 136.363 358.777 141.981 361.908 147.827L370.11 143.089C370.667 142.751 371.507 142.287 371.989 142.024C366.037 137.068 359.203 133.343 351.884 131.022ZM370.907 166.61L380.478 161.088C390.278 155.438 401.483 152.695 412.785 153.18C424.086 153.665 435.015 157.358 444.294 163.828C453.573 170.297 460.818 179.275 465.181 189.712C469.544 200.148 470.845 211.611 468.932 222.759C468.462 222.471 467.642 221.976 467.053 221.638L403.777 185.089C402.2 184.168 400.407 183.683 398.58 183.683C396.754 183.683 394.961 184.168 393.384 185.089L380.38 192.597C377.658 183.704 374.488 175.001 370.907 166.61ZM370.519 215.067C368.276 210.737 365.989 206.642 363.661 202.782C363.582 202.651 363.503 202.519 363.423 202.388C358.241 193.84 352.855 186.455 347.288 180.235C342.346 174.712 337.26 170.108 332.046 166.426C321.651 159.083 310.748 155.403 299.459 155.403C313.651 164.667 321.704 174.076 326.204 182.311C327.713 185.074 328.823 187.705 329.63 190.153C329.655 190.229 329.68 190.304 329.704 190.379C331.213 195.043 331.626 199.036 331.626 202.009C331.626 226.846 313.672 228.91 288.083 231.852C255.576 235.59 210.748 240.744 174.751 295.797C204.444 279.686 230.177 273.357 250.962 273.357C295.5 273.357 319.749 301.551 319.749 328.594C319.749 351.609 303.913 374.625 270.262 383.831C306.768 383.831 341.783 357.286 369.744 311.744C374.415 304.136 378.89 295.998 383.141 287.365C383.17 287.305 383.199 287.246 383.229 287.187C383.801 286.024 384.369 284.852 384.932 283.671C387.366 278.572 389.724 273.308 392 267.885C389.727 260.873 387.384 254.187 384.975 247.827C384.96 247.79 384.946 247.753 384.932 247.716C384.73 247.182 384.527 246.65 384.323 246.12C381.313 238.285 378.2 230.956 374.992 224.132C373.521 221.004 372.03 217.982 370.519 215.067ZM389.322 232.226C388.082 223.801 386.425 215.383 384.375 207.069L391.805 202.781C391.937 202.694 392.089 202.641 392.246 202.627C392.403 202.613 392.562 202.638 392.707 202.7L456.678 239.631C466.479 245.292 474.464 253.628 479.698 263.663C484.932 273.698 487.199 285.016 486.234 296.293C485.268 307.57 481.11 318.338 474.245 327.337C467.381 336.336 458.095 343.193 447.475 347.105V271.82C447.49 269.997 447.019 268.203 446.112 266.622C445.205 265.041 443.894 263.73 442.313 262.823L389.322 232.226ZM384.92 304.541C381.709 317.463 377.866 329.658 373.483 341.071L384.538 334.688C384.664 334.593 384.766 334.469 384.832 334.326C384.899 334.183 384.929 334.025 384.92 333.867V304.541ZM342.024 398.921C347.792 391.32 353.242 382.937 358.298 373.82L394.211 353.075C395.799 352.172 397.118 350.862 398.032 349.279C398.945 347.697 399.421 345.9 399.411 344.073V254.867L426.156 270.31C426.296 270.38 426.417 270.483 426.508 270.611C426.598 270.739 426.656 270.887 426.676 271.043V344.919C426.656 360.697 420.383 375.825 409.231 386.988C398.079 398.15 382.957 404.438 367.178 404.472C358.426 404.485 349.846 402.564 342.024 398.921Z" fill="black"/>
</svg>
