<?xml version="1.0" encoding="UTF-8" standalone="no"?>
<!-- Uploaded to: SVG Repo, www.svgrepo.com, Generator: SVG Repo Mixer Tools -->

<svg
   width="800px"
   height="800px"
   viewBox="0 0 512 512"
   version="1.1"
   id="svg909"
   sodipodi:docname="logo.svg"
   inkscape:version="1.2.2 (b0a84865, 2022-12-01)"
   xmlns:inkscape="http://www.inkscape.org/namespaces/inkscape"
   xmlns:sodipodi="http://sodipodi.sourceforge.net/DTD/sodipodi-0.dtd"
   xmlns="http://www.w3.org/2000/svg"
   xmlns:svg="http://www.w3.org/2000/svg">
  <defs
     id="defs913" />
  <sodipodi:namedview
     id="namedview911"
     pagecolor="#505050"
     bordercolor="#eeeeee"
     borderopacity="1"
     inkscape:showpageshadow="0"
     inkscape:pageopacity="0"
     inkscape:pagecheckerboard="0"
     inkscape:deskcolor="#505050"
     showgrid="false"
     inkscape:zoom="1.28375"
     inkscape:cx="399.61052"
     inkscape:cy="400"
     inkscape:window-width="1390"
     inkscape:window-height="1205"
     inkscape:window-x="0"
     inkscape:window-y="25"
     inkscape:window-maximized="0"
     inkscape:current-layer="svg909" />
  <path
     fill="#000000"
     d="m 456.25485,491.74359 c 14.946,-0.377 26.416,-13.637 33.156,-28.657 18.45,-41.097 -8.38,-36.99 -46.656,-45.561 -8.116,23.789 -15.804,42.332 -23.564,58.844 7.523,4.43 15.405,8.586 23.72,12.404 4.708,2.162 9.158,3.074 13.344,2.97 z m -52.907,-25.5 c 7.026,-15.13 13.945,-32.076 21.344,-53.688 -10.168,-3.41 -20.723,-8.157 -31.155,-15.094 -11.68,12.212 -23.456,21.498 -35.28,29.063 13.287,14.6 28.152,27.967 45.093,39.72 z m -57.28,-53.97 c 11.064,-6.804 21.837,-15.1 32.718,-26.343 -11.416,-10.345 -22.372,-23.944 -32.125,-42.124 -7.94,13.026 -16.59,23.73 -25.625,33.125 7.722,12.28 15.997,24.11 25.03,35.345 z m -104.876,-6.655 c 21.823,-9.456 42.608,-20.63 59.908,-35.126 0.123,-0.117 0.25,-0.227 0.375,-0.344 13.47,-12.74 25.593,-27.446 36.28,-48.72 2.3,-5.677 4.237,-11.678 5.72,-18.03 -21.49,-66.477 -64.75,-126.913 -119.5,-172.094 -33.212,-37.003001 -79.484,-67.087001 -129.469995,-89.030001 118.577995,32.275 223.205995,129.728001 264.281995,248.062001 13.287,-6.835 27.93,-11.178 42.03,-11.625 C 323.06385,93.321589 143.92385,-40.472411 18.536855,40.054589 179.99685,95.304589 210.87185,245.04459 275.81685,366.39859 c -12.505,8.307 -26.713,15.444 -42.06,22.094 l 7.436,17.125 z"
     id="path907" />
</svg>
